<?xml version="1.0" standalone="no"?>
<!DOCTYPE svg PUBLIC "-//W3C//DTD SVG 20010904//EN"
 "http://www.w3.org/TR/2001/REC-SVG-20010904/DTD/svg10.dtd">
<svg version="1.0" xmlns="http://www.w3.org/2000/svg"
 width="500.000000pt" height="500.000000pt" viewBox="0 0 500.000000 500.000000"
 preserveAspectRatio="xMidYMid meet">

<g transform="translate(0.000000,500.000000) scale(0.100000,-0.100000)"
fill="#000000" stroke="none">
<path d="M1981 3714 c-17 -21 -21 -41 -21 -98 0 -100 18 -282 33 -340 9 -36
10 -66 3 -109 -18 -116 26 -248 115 -342 l51 -54 -41 -98 c-23 -54 -54 -123
-69 -154 l-27 -57 -185 52 c-301 85 -327 91 -357 80 -15 -5 -32 -22 -39 -39
-11 -28 -7 -48 51 -225 205 -623 237 -722 233 -725 -1 -1 -26 -14 -54 -28 -64
-32 -99 -73 -119 -139 -19 -65 -19 -91 0 -156 20 -65 63 -115 129 -150 l51
-27 794 -3 c887 -3 854 -5 934 67 131 118 108 326 -46 406 l-53 28 39 131 c22
72 87 272 144 444 56 172 103 326 103 341 0 37 -35 81 -64 81 -13 0 -135 -32
-272 -71 -233 -66 -249 -69 -261 -53 -7 10 -13 22 -13 27 0 6 -25 68 -56 139
l-55 130 44 46 c24 26 59 79 78 117 32 66 34 75 35 185 1 63 9 156 18 205 9
50 19 151 23 226 l6 137 -26 26 c-14 14 -36 26 -48 26 -21 0 -93 -42 -252
-148 l-68 -46 -52 20 c-72 26 -212 26 -284 0 l-51 -19 -149 96 c-91 59 -160
97 -176 97 -16 0 -33 -10 -46 -26z m345 -620 c70 -33 98 -104 49 -126 -71 -32
-186 71 -135 122 24 24 42 25 86 4z m515 6 c31 -17 24 -58 -20 -101 -44 -44
-84 -51 -121 -21 -21 17 -22 20 -7 48 33 64 101 98 148 74z m-213 -266 c5 -35
-44 -84 -83 -84 -53 0 -117 75 -88 104 4 4 43 5 88 4 73 -3 80 -5 83 -24z
m-581 -549 c309 -88 372 -109 391 -131 22 -25 22 -28 22 -340 0 -330 4 -362
45 -378 32 -12 69 -6 92 16 23 21 23 23 23 273 l0 252 38 6 c50 9 82 33 82 62
0 31 -32 50 -59 35 -11 -5 -29 -10 -40 -10 -17 0 -19 5 -14 38 3 20 13 44 22
53 14 14 234 82 481 149 36 10 116 32 179 49 63 18 117 30 121 29 4 -2 -4 -43
-19 -93 l-26 -90 -80 -6 c-95 -6 -111 -12 -130 -50 -41 -79 2 -169 83 -172 23
-1 42 -4 42 -5 0 -2 -25 -82 -56 -178 l-55 -174 -90 0 c-97 0 -150 -15 -168
-48 -18 -34 -13 -79 13 -109 l24 -28 169 -3 c95 -1 177 -7 189 -13 20 -10 44
-48 44 -69 0 -5 -12 -22 -26 -39 l-26 -31 -773 0 -773 0 -26 31 c-32 38 -33
63 -1 94 24 25 27 25 195 25 l172 0 29 29 c49 49 37 107 -31 147 -8 5 -58 11
-110 14 l-95 5 -62 175 -61 175 46 3 c53 4 78 22 99 70 17 41 5 87 -33 123
-21 20 -39 25 -102 29 l-77 5 -32 93 c-25 72 -29 92 -18 92 8 0 180 -47 382
-105z"/>
</g>
</svg>
